<svg width="33.503998" height="27.264160" viewBox="0 0 33.504 27.2642" fill="none" xmlns="http://www.w3.org/2000/svg" xmlns:xlink="http://www.w3.org/1999/xlink">
	<desc>
			Created with Pixso.
	</desc>
	<defs/>
	<path id="“" d="M0.19 16.6C0.06 20.7 -7.63e-6 24.25 -7.63e-6 27.26L13.82 27.26L13.82 13.53L7.1 13.53Q7.1 9.31 8.25 7.2C9.08 5.72 10.65 4.96 12.96 4.89L11.8 0C7.58 0 4.63 1.31 2.97 3.93Q0.47 7.87 0.19 16.6ZM19.87 16.6C19.74 20.7 19.68 24.25 19.68 27.26L33.5 27.26L33.5 13.53L26.78 13.53C26.78 10.72 27.16 8.6 27.93 7.2C28.76 5.72 30.33 4.96 32.64 4.89L31.48 0C27.26 0 24.32 1.31 22.65 3.93Q20.16 7.87 19.87 16.6Z" fill="#F7654A" fill-opacity="1.000000" fill-rule="evenodd"/>
</svg>
