<svg width="36.000000" height="48.046875" viewBox="0 0 36 48.0469" fill="none" xmlns="http://www.w3.org/2000/svg" xmlns:xlink="http://www.w3.org/1999/xlink">
	<desc>
			Created with Pixso.
	</desc>
	<defs/>
	<path d="M0 18C0 8.15 7.96 0 18 0C27.84 0 36 8.06 36 18C36 24.75 33.75 26.81 21.75 45.93C19.96 48.75 15.93 48.75 14.15 45.93C2.15 26.81 0 24.75 0 18ZM4.5 18C4.5 23.15 6 24.37 18 43.5C30 24.18 31.5 23.15 31.5 18C31.5 10.59 25.4 4.5 18 4.5C10.5 4.5 4.5 10.59 4.5 18ZM18 25.5C13.78 25.5 10.5 22.21 10.5 18C10.5 13.87 13.78 10.5 18 10.5C22.12 10.5 25.5 13.87 25.5 18C25.5 22.21 22.12 25.5 18 25.5Z" fill="#F7654A" fill-opacity="1.000000" fill-rule="evenodd"/>
</svg>
