<svg width="46.500000" height="46.500000" viewBox="0 0 46.5 46.5" fill="none" xmlns="http://www.w3.org/2000/svg" xmlns:xlink="http://www.w3.org/1999/xlink">
	<desc>
			Created with Pixso.
	</desc>
	<defs/>
	<path d="M0 23.25C0 10.4 10.4 0 23.25 0C36.09 0 46.5 10.4 46.5 23.25C46.5 36.09 36.09 46.5 23.25 46.5C10.4 46.5 0 36.09 0 23.25ZM4.5 23.25C4.5 33.65 12.84 42 23.25 42C33.56 42 42 33.65 42 23.25C42 12.93 33.56 4.5 23.25 4.5C12.84 4.5 4.5 12.93 4.5 23.25ZM30.56 31.96C30.18 32.53 29.53 32.62 28.96 32.25L21 26.43C20.71 26.25 20.62 25.87 20.62 25.59L20.62 10.12C20.62 9.56 21.09 9 21.75 9L24.75 9C25.31 9 25.87 9.56 25.87 10.12L25.87 23.43L32.06 28.03C32.62 28.4 32.71 29.06 32.34 29.62L30.56 31.96Z" fill="#F7654A" fill-opacity="1.000000" fill-rule="evenodd"/>
</svg>
