<svg width="48.000000" height="36.000000" viewBox="0 0 48 36" fill="none" xmlns="http://www.w3.org/2000/svg" xmlns:xlink="http://www.w3.org/1999/xlink">
	<desc>
			Created with Pixso.
	</desc>
	<defs/>
	<path d="M4.5 0L43.5 0C45.93 0 48 2.06 48 4.5L48 31.5C48 34.03 45.93 36 43.5 36L4.5 36C1.96 36 0 34.03 0 31.5L0 4.5C0 2.06 1.96 0 4.5 0ZM43.5 8.34L43.5 4.5L4.5 4.5L4.5 8.34C6.56 10.12 9.93 12.75 17.06 18.37C17.35 18.59 17.7 18.88 18.08 19.19C19.76 20.59 22.16 22.57 24 22.5C25.74 22.57 28.11 20.61 29.79 19.22C30.18 18.89 30.54 18.6 30.84 18.37C37.96 12.75 41.34 10.12 43.5 8.34ZM4.5 14.15L4.5 31.5L43.5 31.5L43.5 14.15C41.34 15.84 38.25 18.28 33.65 21.93C33.28 22.21 32.86 22.55 32.4 22.91C30.24 24.66 27.25 27.07 24 27C20.54 27.08 17.36 24.47 15.23 22.72C14.87 22.43 14.54 22.16 14.25 21.93C9.65 18.28 6.56 15.84 4.5 14.15Z" fill="#F7654A" fill-opacity="1.000000" fill-rule="evenodd"/>
</svg>
