<svg width="60.000000" height="60.000000" viewBox="0 0 60 60" fill="none" xmlns="http://www.w3.org/2000/svg" xmlns:xlink="http://www.w3.org/1999/xlink">
	<desc>
			Created with Pixso.
	</desc>
	<defs/>
	<path d="M54.04 5.95C50.18 2.12 45.09 0 39.65 0C34.21 0 29.13 2.12 25.26 5.95C22.27 8.94 20.31 12.74 19.6 16.83C19.53 17.25 19.47 17.67 19.44 18.09C19.4 18.5 19.37 18.92 19.34 19.34C19.31 19.66 19.31 20.02 19.31 20.34L19.31 23.11L19.31 24.36L19.31 25.62L19.31 40.71L34.4 40.71L35.66 40.71L36.92 40.71C36.95 40.36 36.95 40.04 36.95 39.68L36.95 36.95L35.69 36.95L23.07 36.95L23.07 25.59L23.07 23.11L23.07 20.37C23.07 20.02 23.07 19.69 23.11 19.34C23.14 18.92 23.17 18.5 23.24 18.09C23.3 17.67 23.36 17.25 23.46 16.83C24.14 13.68 25.75 10.84 27.93 8.62C30.93 5.63 35.08 3.76 39.65 3.76C48.79 3.76 56.23 11.2 56.23 20.34C56.23 24.91 54.36 29.06 51.37 32.06C49.15 34.28 46.31 35.85 43.16 36.53L43.16 36.88L43.16 39.65C43.16 39.91 43.16 40.13 43.16 40.39C47.25 39.68 51.05 37.72 54.04 34.73C57.87 30.9 60 25.78 60 20.34C60 14.9 57.87 9.78 54.04 5.95Z" fill="#F7654A" fill-opacity="1.000000" fill-rule="nonzero"/>
	<path d="M23.07 23.07L24.33 23.07L25.59 23.07L36.95 23.07L36.95 34.44L36.95 35.69L36.95 36.95L36.95 39.68C36.95 40.04 36.95 40.36 36.92 40.71C36.88 41.13 36.85 41.55 36.79 41.97C36.72 42.39 36.66 42.81 36.56 43.22C35.89 46.38 34.28 49.21 32.09 51.43C29.09 54.43 24.94 56.29 20.37 56.29C11.23 56.29 3.79 48.86 3.79 39.72C3.79 35.15 5.66 30.99 8.65 28C10.87 25.78 13.71 24.2 16.86 23.53L16.86 20.4C16.86 20.15 16.86 19.92 16.86 19.66C12.77 20.37 8.98 22.33 5.98 25.33C2.12 29.09 0 34.21 0 39.65C0 45.09 2.12 50.18 5.95 54.04C9.78 57.87 14.9 60 20.34 60C25.78 60 30.86 57.87 34.73 54.04C38.33 50.43 40.42 45.7 40.65 40.65C40.65 40.49 40.65 40.33 40.68 40.17C40.68 40.07 40.68 40.01 40.68 39.91C40.68 39.81 40.68 39.75 40.68 39.65L40.68 36.88L40.68 19.31L25.59 19.31L24.33 19.31L23.07 19.31C23.04 19.66 23.04 19.98 23.04 20.34L23.07 23.07Z" fill="#F7654A" fill-opacity="1.000000" fill-rule="nonzero"/>
</svg>
