<svg width="18.000000" height="14.142883" viewBox="0 0 18 14.1429" fill="none" xmlns="http://www.w3.org/2000/svg" xmlns:xlink="http://www.w3.org/1999/xlink">
	<desc>
			Created with Pixso.
	</desc>
	<defs/>
	<path d="M16.39 1.71e-5C17.26 1.71e-5 18 0.72 18 1.6C18 2.73 17.16 3.74 16.28 4.35C14.71 5.44 13.13 6.52 11.58 7.62C10.92 8.07 9.82 9 9.01 9L8.98 9C8.17 9 7.07 8.07 6.41 7.62C4.86 6.52 3.28 5.44 1.72 4.35C1.01 3.87 0 2.74 0 1.82C0 0.84 0.53 1.71e-5 1.6 1.71e-5L16.39 1.71e-5ZM16.99 5.43C17.35 5.18 17.69 4.89 18 4.56L18 12.53C18 13.41 17.27 14.14 16.39 14.14L1.6 14.14C0.72 14.14 0 13.41 0 12.53L0 4.56C0.3 4.89 0.64 5.18 1.01 5.43C2.68 6.56 4.36 7.7 6 8.89C6.85 9.52 7.89 10.28 8.98 10.28L9.01 10.28C10.1 10.28 11.14 9.52 11.99 8.89C13.63 7.71 15.31 6.56 16.99 5.43Z" fill="#000000" fill-opacity="1.000000" fill-rule="evenodd"/>
</svg>
