<svg width="48.018753" height="47.924805" viewBox="0 0 48.0188 47.9248" fill="none" xmlns="http://www.w3.org/2000/svg" xmlns:xlink="http://www.w3.org/1999/xlink">
	<desc>
			Created with Pixso.
	</desc>
	<defs/>
	<path d="M35.83 0.11L44.64 2.08C46.61 2.54 48.01 4.33 48.01 6.29C48.01 29.36 29.26 47.92 6.3 47.92C4.33 47.92 2.55 46.61 2.08 44.64L0.11 35.83C-0.36 33.76 0.67 31.7 2.55 30.86L12.11 26.83C13.8 26.08 15.86 26.54 17.08 28.04L20.17 31.79C25.05 29.08 29.17 25.04 31.8 20.17L28.05 17.08C26.55 15.86 26.08 13.79 26.83 12.11L30.95 2.54C31.7 0.67 33.76 -0.36 35.83 0.11ZM4.51 34.98L6.48 43.42C26.83 43.33 43.42 26.83 43.51 6.48L34.98 4.51L31.05 13.7L37.42 18.95C33.01 28.23 28.23 33.01 18.95 37.42L13.7 31.04L4.51 34.98Z" fill="#F7654A" fill-opacity="1.000000" fill-rule="evenodd"/>
</svg>
