<svg width="60.000000" height="48.000000" viewBox="0 0 60 48" fill="none" xmlns="http://www.w3.org/2000/svg" xmlns:xlink="http://www.w3.org/1999/xlink">
	<desc>
			Created with Pixso.
	</desc>
	<defs/>
	<path id="ï™" d="M48 18L57.75 18C58.96 18 60 19.03 60 20.25L60 46.5C60 47.34 59.25 48 58.5 48L57 48C56.15 48 55.5 47.34 55.5 46.5L55.5 22.5L43.5 22.5L43.5 4.5L28.5 4.5L28.5 13.5L4.5 13.5L4.5 46.5C4.5 47.34 3.75 48 3 48L1.5 48C0.65 48 0 47.34 0 46.5L0 11.25C0 10.03 0.93 9 2.25 9L6 9L6 1.5C6 0.75 6.65 0 7.5 0L9 0C9.75 0 10.5 0.75 10.5 1.5L10.5 9L16.5 9L16.5 1.5C16.5 0.75 17.15 0 18 0L19.5 0C20.25 0 21 0.75 21 1.5L21 9L24 9L24 2.25C24 1.03 24.93 0 26.25 0L45.75 0C46.96 0 48 1.03 48 2.25L48 18ZM34.12 9L37.87 9C38.43 9 39 9.56 39 10.12L39 13.87C39 14.53 38.43 15 37.87 15L34.12 15C33.46 15 33 14.53 33 13.87L33 10.12C33 9.56 33.46 9 34.12 9ZM10.12 18L13.87 18C14.43 18 15 18.56 15 19.12L15 22.87C15 23.53 14.43 24 13.87 24L10.12 24C9.46 24 9 23.53 9 22.87L9 19.12C9 18.56 9.46 18 10.12 18ZM18 19.12C18 18.56 18.46 18 19.12 18L22.87 18C23.43 18 24 18.56 24 19.12L24 22.87C24 23.53 23.43 24 22.87 24L19.12 24C18.46 24 18 23.53 18 22.87L18 19.12ZM34.12 18L37.87 18C38.43 18 39 18.56 39 19.12L39 22.87C39 23.53 38.43 24 37.87 24L34.12 24C33.46 24 33 23.53 33 22.87L33 19.12C33 18.56 33.46 18 34.12 18ZM10.12 27L13.87 27C14.43 27 15 27.56 15 28.12L15 31.87C15 32.53 14.43 33 13.87 33L10.12 33C9.46 33 9 32.53 9 31.87L9 28.12C9 27.56 9.46 27 10.12 27ZM18 28.12C18 27.56 18.46 27 19.12 27L22.87 27C23.43 27 24 27.56 24 28.12L24 31.87C24 32.53 23.43 33 22.87 33L19.12 33C18.46 33 18 32.53 18 31.87L18 28.12ZM34.12 27L37.87 27C38.43 27 39 27.56 39 28.12L39 31.87C39 32.53 38.43 33 37.87 33L34.12 33C33.46 33 33 32.53 33 31.87L33 28.12C33 27.56 33.46 27 34.12 27ZM45 28.12C45 27.56 45.46 27 46.12 27L49.87 27C50.43 27 51 27.56 51 28.12L51 31.87C51 32.53 50.43 33 49.87 33L46.12 33C45.46 33 45 32.53 45 31.87L45 28.12ZM10.12 36L13.87 36C14.43 36 15 36.56 15 37.12L15 40.87C15 41.53 14.43 42 13.87 42L10.12 42C9.46 42 9 41.53 9 40.87L9 37.12C9 36.56 9.46 36 10.12 36ZM18 37.12C18 36.56 18.46 36 19.12 36L22.87 36C23.43 36 24 36.56 24 37.12L24 40.87C24 41.53 23.43 42 22.87 42L19.12 42C18.46 42 18 41.53 18 40.87L18 37.12ZM45 37.12C45 36.56 45.46 36 46.12 36L49.87 36C50.43 36 51 36.56 51 37.12L51 40.87C51 41.53 50.43 42 49.87 42L46.12 42C45.46 42 45 41.53 45 40.87L45 37.12Z" fill="#F7654A" fill-opacity="1.000000" fill-rule="evenodd"/>
</svg>
